<?xml version="1.0" encoding="UTF-8"?>
<svg id="Calque_1" xmlns="http://www.w3.org/2000/svg" version="1.1" viewBox="0 0 400 300">
  <!-- Generator: Adobe Illustrator 30.0.0, SVG Export Plug-In . SVG Version: 2.1.1 Build 123)  -->
  <defs>
    <style>
      .st0 {
        fill: #d8e4ed;
      }

      .st1 {
        fill: #91c0d9;
      }

      .st2 {
        fill: #fffbfb;
      }
    </style>
  </defs>
  <g>
    <path class="st0" d="M135.4,122.64s13.9-6.67,27.78-7.7h.13c11.18-13.11,32.94-43.88,10.07-63.04-26.65-22.32-105.33-9.01-121.11-6.06-1.64.31-2.86,1.68-2.99,3.35l-5.86,75.92c-.17,2.25,1.7,4.13,3.95,3.97l88.04-6.43h-.01Z"/>
    <path class="st1" d="M163.18,114.93l-116.43,7.44c-1.86.13-3.33,1.63-3.43,3.49l-6.81,128.78h0c48.73-138.46,124.64-139.19,126.67-139.71Z"/>
  </g>
  <g>
    <path class="st0" d="M94.93,208.67l10.53-47.78h24c9.24,0,15.26,6.3,15.26,14.11,0,6.95-4.66,18.91-21.2,18.91h-10.89l-3.22,14.76h-14.48ZM123.94,181.31c3.65,0,5.8-1.93,5.8-4.8,0-2.22-1.5-3.58-4.37-3.58h-8.09l-1.86,8.38h8.52Z"/>
    <path class="st0" d="M170.94,174.07h12.89l-7.66,34.6h-12.89l.86-3.65c-3.01,3.29-5.8,4.51-9.38,4.51-7.74,0-12.89-5.09-12.89-14.4s5.95-21.92,18.27-21.92c3.94,0,7.81,1.43,10.03,4.51l.79-3.65h-.02ZM160.91,198.14c2.01,0,3.73-.86,5.23-2.36l2.01-8.81c-1.36-1.5-3.44-2.36-5.73-2.36-4.08,0-7.24,3.37-7.24,7.81,0,3.44,2.65,5.73,5.73,5.73h0Z"/>
    <path class="st0" d="M205.54,173.21c7.88,0,12.82,3.29,15.19,7.16l-9.6,7.38c-1-1.72-3.01-3.15-5.73-3.15-4.44,0-7.66,3.37-7.66,8.02,0,3.37,2.94,5.52,6.38,5.52,2.36,0,4.44-1.22,5.8-2.79l6.88,8.52c-2.29,2.51-7.23,5.66-13.97,5.66-11.32,0-18.12-6.88-18.12-16.05,0-11.39,9.1-20.27,20.84-20.27h-.01Z"/>
    <path class="st1" d="M237.86,208.67l10.53-47.78h24c9.24,0,15.26,6.3,15.26,14.11,0,6.95-4.66,18.91-21.2,18.91h-10.89l-3.22,14.76h-14.48ZM266.87,181.31c3.65,0,5.8-1.93,5.8-4.8,0-2.22-1.5-3.58-4.37-3.58h-8.1l-1.86,8.38h8.53Z"/>
    <path class="st1" d="M313.86,174.07h12.89l-7.66,34.6h-12.89l.86-3.65c-3.01,3.29-5.8,4.51-9.38,4.51-7.73,0-12.89-5.09-12.89-14.4s5.95-21.92,18.27-21.92c3.94,0,7.81,1.43,10.03,4.51l.79-3.65h-.02ZM303.83,198.14c2.01,0,3.72-.86,5.23-2.36l2.01-8.81c-1.36-1.5-3.44-2.36-5.73-2.36-4.08,0-7.24,3.37-7.24,7.81,0,3.44,2.65,5.73,5.73,5.73h0Z"/>
    <path class="st1" d="M348.47,173.21c7.88,0,12.82,3.29,15.19,7.16l-9.6,7.38c-1-1.72-3.01-3.15-5.73-3.15-4.44,0-7.66,3.37-7.66,8.02,0,3.37,2.94,5.52,6.37,5.52,2.36,0,4.44-1.22,5.8-2.79l6.88,8.52c-2.29,2.51-7.24,5.66-13.97,5.66-11.32,0-18.12-6.88-18.12-16.05,0-11.39,9.1-20.27,20.84-20.27h0Z"/>
  </g>
  <g>
    <path class="st2" d="M115.44,224.17h2.88l.42,7.05c.08,1.33.06,3.14.06,3.14h.04s.65-1.77,1.19-3.12l2.82-7.07h2.68l.34,7.05c.06,1.27.08,3.14.08,3.14h.04s.71-1.87,1.25-3.16l2.94-7.03h2.8l-6.35,14.19h-2.64l-.42-7.64c-.06-1.13-.06-2.62-.06-2.62h-.04s-.46,1.45-.93,2.62l-3.08,7.64h-2.6l-1.41-14.19h0Z"/>
    <path class="st2" d="M133.48,234.02c0,1.61.54,2.58,2.08,2.58.93,0,1.71-.4,2.08-1.27h2.62c-.32.95-.85,1.73-1.57,2.28-.85.68-1.95,1.03-3.18,1.05-2.64,0-4.69-1.47-4.69-4.68,0-2.96,2.16-6.07,5.46-6.07,1.11,0,1.89.22,2.56.65,1.53.99,2.08,3.02,1.71,5.46h-7.09.02ZM133.72,232.17h4.39c.04-1.19-.5-2.2-1.87-2.2s-2.16,1.01-2.52,2.2Z"/>
    <path class="st2" d="M143.83,236.88h-.04l-.28,1.49h-2.56l2.74-14.19h2.66l-1.01,5.2h.06c.67-.83,1.67-1.47,2.92-1.47,2.26,0,3.55,1.79,3.55,4.29,0,3.28-1.57,6.47-4.96,6.47-1.27,0-2.5-.5-3.08-1.79h0ZM146.52,236.42c1.93,0,2.6-2.2,2.6-4.03,0-1.19-.44-2.32-1.89-2.32-1.96,0-2.8,2.24-2.8,4.01,0,1.25.62,2.34,2.08,2.34h0Z"/>
    <path class="st2" d="M158.46,224.17h4.51c3.49,0,5.78,2.04,5.78,6.01,0,2.72-.67,4.62-2.06,6.09-1.23,1.31-3.24,2.09-5.38,2.09h-5.58l2.74-14.19h0ZM161.32,235.88c2.98,0,4.55-2.12,4.55-5.62,0-2.34-1.09-3.63-3.26-3.63h-1.79l-1.79,9.25h2.29Z"/>
    <path class="st2" d="M171.99,234.02c0,1.61.54,2.58,2.08,2.58.93,0,1.71-.4,2.08-1.27h2.62c-.32.95-.85,1.73-1.57,2.28-.85.68-1.95,1.03-3.18,1.05-2.64,0-4.69-1.47-4.69-4.68,0-2.96,2.16-6.07,5.46-6.07,1.11,0,1.89.22,2.56.65,1.53.99,2.08,3.02,1.71,5.46h-7.09.02ZM172.23,232.17h4.39c.04-1.19-.5-2.2-1.87-2.2s-2.16,1.01-2.52,2.2Z"/>
    <path class="st2" d="M179.44,235.07h2.52c.1.87.7,1.65,2.08,1.65.97,0,1.67-.34,1.67-1.11s-.87-1.01-2.36-1.51c-1.55-.52-2.92-1.17-2.92-2.98,0-2.06,1.65-3.22,3.97-3.22s3.99,1.15,4.17,3.37h-2.44c-.12-.79-.67-1.47-1.81-1.47-.71,0-1.53.24-1.53,1.01,0,.7.91.85,2.48,1.39,1.47.5,2.88,1.25,2.88,3.04,0,2.18-1.53,3.41-4.11,3.41s-4.43-1.03-4.61-3.59h0Z"/>
    <path class="st2" d="M190.8,228.18h2.66l-1.97,10.19h-2.66l1.97-10.19ZM191.58,224.17h2.66l-.46,2.42h-2.66l.46-2.42Z"/>
    <path class="st2" d="M193.4,238.66h2.7c.16.73.67,1.15,1.63,1.15,1.27,0,1.97-.85,2.2-2.14l.2-1.03h-.06c-.67.68-1.31,1.11-2.5,1.11-2.3,0-3.83-1.71-3.83-4.15,0-2.98,1.89-5.7,4.96-5.7,1.31,0,2.36.55,2.86,1.51h.04l.24-1.23h2.56l-1.89,9.75c-.24,1.23-.71,2.1-1.45,2.78-.81.75-1.81,1.13-3.39,1.13-2.03,0-4.01-.89-4.27-3.18h0ZM201.03,232.31c-.02-1.31-.72-2.26-2.03-2.26-1.65,0-2.62,1.55-2.62,3.35,0,1.27.66,2.2,1.97,2.2,1.69,0,2.7-1.61,2.68-3.3h0Z"/>
    <path class="st2" d="M208.42,229.79h.06c.87-1.25,1.73-1.88,3.18-1.88,2.03,0,3.2,1.65,2.74,4.03l-1.23,6.43h-2.66l1.19-6.12c.26-1.35-.26-2.08-1.39-2.08-1.25,0-2.14,1.15-2.42,2.64l-1.07,5.56h-2.66l1.97-10.19h2.6l-.3,1.61h0Z"/>
    <path class="st2" d="M218.47,234.75c0-2.28,1.85-3.69,3.77-4.39-.48-.77-.77-1.61-.77-2.58,0-2.09,1.59-3.51,3.81-3.51,1.69,0,3.59.91,3.59,3.12,0,1.87-1.35,2.9-3.1,3.67l1.53,2.6c.38-.67.71-1.59.97-2.58h2.36c-.42,1.91-1.19,3.51-2.09,4.7l1.57,2.58h-3.08l-.5-.81c-.86.58-2.01,1.11-3.55,1.11-2.5,0-4.53-1.27-4.53-3.91h.02ZM223.24,236.5c.85,0,1.57-.3,2.26-.79l-2.2-3.65c-1.01.4-2.02,1.23-2.02,2.52,0,1.15.73,1.93,1.97,1.93h0ZM224.01,227.66c0,.64.3,1.23.73,1.83.83-.42,1.59-.97,1.59-1.99,0-.6-.34-1.21-1.11-1.21-.68,0-1.21.58-1.21,1.37h0Z"/>
    <path class="st2" d="M237.32,224.17h5.46c2.72,0,4.53,1.53,4.53,4.19,0,3.04-2.16,4.86-5.34,4.86h-3.45l-.99,5.14h-2.94l2.74-14.19h-.01ZM238.97,230.9h2.86c1.33,0,2.54-.71,2.54-2.4,0-1.15-.68-1.85-1.97-1.85h-2.62l-.81,4.25Z"/>
    <path class="st2" d="M248.72,228.18h2.66l-1.97,10.19h-2.66l1.97-10.19ZM249.5,224.17h2.66l-.46,2.42h-2.66l.46-2.42Z"/>
    <path class="st2" d="M254.82,232.93l-2.26-4.75h2.88l1.23,3.1h.04l2.16-3.1h2.9l-3.97,5.02,2.5,5.16h-2.96l-1.37-3.38h-.04l-2.62,3.38h-2.96l4.47-5.44h0Z"/>
    <path class="st2" d="M263.46,234.02c0,1.61.54,2.58,2.08,2.58.93,0,1.71-.4,2.09-1.27h2.62c-.32.95-.85,1.73-1.57,2.28-.85.68-1.95,1.03-3.18,1.05-2.64,0-4.68-1.47-4.68-4.68,0-2.96,2.16-6.07,5.46-6.07,1.11,0,1.89.22,2.56.65,1.53.99,2.09,3.02,1.71,5.46h-7.09,0ZM263.7,232.17h4.39c.04-1.19-.5-2.2-1.87-2.2s-2.16,1.01-2.52,2.2h0Z"/>
    <path class="st2" d="M273.71,224.17h2.66l-2.74,14.19h-2.66l2.74-14.19Z"/>
    <path class="st2" d="M287.21,235.33h-4.9l-1.43,3.04h-2.88l7.27-14.19h2.94l2.34,14.19h-2.94l-.4-3.04ZM283.34,233.14h3.59l-.5-3.99c-.1-.81-.18-2.26-.18-2.26h-.04s-.6,1.47-.95,2.22l-1.93,4.03h.01Z"/>
    <path class="st2" d="M295.64,229.81h.06c.6-1.01,1.41-1.75,2.68-1.75.38,0,.62.04.75.08l-.46,2.34h-.06c-1.85-.24-3.14.62-3.57,2.92l-.95,4.96h-2.66l1.97-10.19h2.56l-.32,1.63h0Z"/>
    <path class="st2" d="M299.83,228.18h1.29l.62-3.18h2.6l-.62,3.18h1.71l-.34,1.79h-1.71l-1.03,5.3c-.16.79.1,1.11.75,1.11.3,0,.79-.04.79-.04l-.38,1.99s-.68.06-1.21.06c-2.06,0-3.04-.75-2.62-2.86l1.09-5.56h-1.29l.34-1.79h0Z"/>
    <path class="st2" d="M305.01,235.07h2.52c.1.87.7,1.65,2.09,1.65.97,0,1.67-.34,1.67-1.11s-.87-1.01-2.36-1.51c-1.55-.52-2.92-1.17-2.92-2.98,0-2.06,1.65-3.22,3.97-3.22s3.99,1.15,4.17,3.37h-2.44c-.12-.79-.68-1.47-1.81-1.47-.71,0-1.53.24-1.53,1.01,0,.7.91.85,2.48,1.39,1.47.5,2.88,1.25,2.88,3.04,0,2.18-1.53,3.41-4.11,3.41s-4.43-1.03-4.61-3.59h0Z"/>
  </g>
</svg>